<svg width="54" height="22" viewBox="0 0 54 22" fill="none" xmlns="http://www.w3.org/2000/svg">
    <path d="M16.0807 21.2563C18.7687 21.2563 20.3654 19.1543 20.3654 15.5947C20.3654 14.2544 20.109 13.1265 19.6183 12.2549C18.9079 10.8999 17.6847 10.1675 16.1393 10.1675C13.8395 10.1675 12.2135 11.7129 12.2135 13.8809C12.2135 15.917 13.6784 17.3965 15.6925 17.3965C16.9303 17.3965 17.9337 16.8179 18.4318 15.8145H18.4537C18.4537 15.8145 18.483 15.8145 18.4904 15.8145C18.505 15.8145 18.5563 15.8145 18.5563 15.8145C18.5563 18.2314 17.6408 19.6743 16.0954 19.6743C15.1871 19.6743 14.484 19.1763 14.2423 18.3779H12.36C12.6749 20.1138 14.1471 21.2563 16.0807 21.2563ZM16.1466 15.895C14.9308 15.895 14.0665 15.0308 14.0665 13.8223C14.0665 12.6431 14.9747 11.7422 16.1539 11.7422C17.3331 11.7422 18.2413 12.6577 18.2413 13.8516C18.2413 15.0308 17.3551 15.895 16.1466 15.895ZM23.5165 21.1538C24.2123 21.1538 24.6884 20.6558 24.6884 19.9966C24.6884 19.3301 24.2123 18.8394 23.5165 18.8394C22.828 18.8394 22.3446 19.3301 22.3446 19.9966C22.3446 20.6558 22.828 21.1538 23.5165 21.1538ZM23.5165 15.6606C24.2123 15.6606 24.6884 15.1699 24.6884 14.5107C24.6884 13.8442 24.2123 13.3535 23.5165 13.3535C22.828 13.3535 22.3446 13.8442 22.3446 14.5107C22.3446 15.1699 22.828 15.6606 23.5165 15.6606ZM31.6041 21H33.4132V19.0298H34.8414V17.4331H33.4132V10.4312H30.7472C28.8795 13.2437 27.3927 15.5947 26.4405 17.3452V19.0298H31.6041V21ZM28.191 17.3672C29.4215 15.1992 30.5201 13.4634 31.5309 11.9692H31.6334V17.4771H28.191V17.3672ZM38.93 21H40.8197V10.4312H38.9374L36.1761 12.3647V14.1812L38.8055 12.3354H38.93V21Z" fill="black"/>
</svg>
